# File created by Blade
# Date/Time:  Tue Jan 27 20:12:12 2015
#---------------------------------------------------------
:version 1.10
:name HOM
:units
  mass 1.0
  length 1.000000
  angle deg
:documentation
     Acclaim Skeleton File
:root
   axis xyz
   order TX TY TZ RX RY RZ
   position 0.000000 0.000000 0.000000
   orientation 0 0 0
:bonedata
   begin
      id 1
      name Spine_dum
      direction 0.000000 1.000000 0.000000
      length 6.116652
      axis 0.0 0.0 0.0 xyz
   end
   begin
      id 2
      name LeftUpLeg_dum
      direction 1.000000 0.000000 0.000000
      length 4.711765
      axis 0.0 0.0 0.0 xyz
   end
   begin
      id 3
      name RightUpLeg_dum
      direction -1.000000 0.000000 0.000000
      length 4.711765
      axis 0.0 0.0 0.0 xyz
   end
   begin
      id 4
      name Spine
      direction 0.000000 1.000000 0.000000
      length 0.000000
      axis 0.0 0.0 0.0 xyz
      dof rx ry rz
   end
   begin
      id 5
      name Spine_dum1
      direction 0.000000 1.000000 0.000000
      length 15.225563
      axis 0.0 0.0 0.0 xyz
   end
   begin
      id 6
      name Spine_dum2
      direction 0.000000 1.000000 0.000000
      length 8.977654
      axis 0.0 0.0 0.0 xyz
   end
   begin
      id 7
      name Spine_dum3
      direction 0.000000 1.000000 0.000000
      length 8.977654
      axis 0.0 0.0 0.0 xyz
   end
   begin
      id 8
      name Head
      direction 0.000000 1.000000 0.000000
      length 4.527550
      axis 0.0 0.0 0.0 xyz
      dof rx ry rz
   end
   begin
      id 9
      name LeftShoulder
      direction 1.000000 0.000000 0.000000
      length 7.110130
      axis 0.0 0.0 -90.0 xyz
      dof rx ry rz
   end
   begin
      id 10
      name LeftArm
      direction 1.000000 0.000000 0.000000
      length 10.398341
      axis 0.0 0.0 -90.0 xyz
      dof rx ry rz
   end
   begin
      id 11
      name LeftForeArm
      direction 1.000000 0.000000 0.000000
      length 8.888997
      axis 0.0 0.0 -90.0 xyz
      dof ry rz rx
   end
   begin
      id 12
      name LeftHand
      direction 0.000000 0.000000 0.000000
      length 0.000000
      axis 0.0 0.0 -90.0 xyz
      dof rx ry rz
   end
   begin
      id 13
      name LeftHand_dum1
      direction 0.000000 0.000000 0.000000
      length 0.000000
      axis 0.0 0.0 -90.0 xyz
   end
   begin
      id 14
      name LeftHand_dum2
      direction 1.000000 0.000000 0.000000
      length 3.937000
      axis 0.0 0.0 -90.0 xyz
   end
   begin
      id 15
      name LeftHandThumb1
      direction 0.000000 0.000000 1.000000
      length 3.937000
      axis 0.0 0.0 -90.0 xyz
      dof rx rz ry
   end
   begin
      id 16
      name RightShoulder
      direction -1.000000 0.000000 0.000000
      length 7.110130
      axis 0.0 0.0 90.0 xyz
      dof rx ry rz
   end
   begin
      id 17
      name RightArm
      direction -1.000000 0.000000 0.000000
      length 10.398341
      axis 0.0 0.0 90.0 xyz
      dof rx ry rz
   end
   begin
      id 18
      name RightForeArm
      direction -1.000000 0.000000 0.000000
      length 8.888997
      axis 0.0 0.0 90.0 xyz
      dof ry rz rx
   end
   begin
      id 19
      name RightHand
      direction 0.000000 0.000000 0.000000
      length 0.000000
      axis 0.0 0.0 90.0 xyz
      dof rx ry rz
   end
   begin
      id 20
      name RightHand_dum1
      direction 0.000000 0.000000 0.000000
      length 0.000000
      axis 0.0 0.0 90.0 xyz
   end
   begin
      id 21
      name RightHand_dum2
      direction -1.000000 0.000000 0.000000
      length 3.937000
      axis 0.0 0.0 90.0 xyz
   end
   begin
      id 22
      name RightHandThumb1
      direction 0.000000 0.000000 1.000000
      length 3.937000
      axis 0.0 0.0 90.0 xyz
      dof rx rz ry
   end
   begin
      id 23
      name LeftUpLeg
      direction 0.000000 -1.000000 0.000000
      length 15.510451
      axis 0.0 0.0 0.0 xyz
      dof rx ry rz
   end
   begin
      id 24
      name LeftLeg
      direction 0.000000 -1.000000 0.000000
      length 14.858061
      axis 0.0 0.0 0.0 xyz
      dof rx ry rz
   end
   begin
      id 25
      name LeftFoot
      direction 0.000000 -0.258819 0.965926
      length 5.128852
      axis 15.0 0.0 0.0 xyz
      dof rx ry rz
   end
   begin
      id 26
      name LeftToeBase
      direction 0.000000 0.000000 1.000000
      length 2.952750
      axis 0.0 0.0 0.0 xyz
      dof rx ry rz
   end
   begin
      id 27
      name RightUpLeg
      direction 0.000000 -1.000000 0.000000
      length 15.510451
      axis 0.0 0.0 0.0 xyz
      dof rx ry rz
   end
   begin
      id 28
      name RightLeg
      direction 0.000000 -1.000000 0.000000
      length 14.858061
      axis 0.0 0.0 0.0 xyz
      dof rx ry rz
   end
   begin
      id 29
      name RightFoot
      direction 0.000000 -0.258819 0.965926
      length 5.128852
      axis 15.0 0.0 0.0 xyz
      dof rx ry rz
   end
   begin
      id 30
      name RightToeBase
      direction 0.000000 0.000000 1.000000
      length 2.952750
      axis 0.0 0.0 0.0 xyz
      dof rx ry rz
   end
:hierarchy
   begin
      root Spine_dum LeftUpLeg_dum RightUpLeg_dum
      Spine_dum Spine
      LeftUpLeg_dum LeftUpLeg
      RightUpLeg_dum RightUpLeg
      Spine Spine_dum1 Spine_dum2 Spine_dum3
      Spine_dum1 Head
      Spine_dum2 LeftShoulder
      Spine_dum3 RightShoulder
      LeftShoulder LeftArm
      LeftArm LeftForeArm
      LeftForeArm LeftHand
      LeftHand LeftHand_dum1 LeftHand_dum2
      LeftHand_dum1 LeftHandThumb1
      RightShoulder RightArm
      RightArm RightForeArm
      RightForeArm RightHand
      RightHand RightHand_dum1 RightHand_dum2
      RightHand_dum1 RightHandThumb1
      LeftUpLeg LeftLeg
      LeftLeg LeftFoot
      LeftFoot LeftToeBase
      RightUpLeg RightLeg
      RightLeg RightFoot
      RightFoot RightToeBase
   end

# File created by Blade
# Date/Time:  Tue Jan 27 20:12:02 2015
# Frame Rate: 120.000 fps
#------------------------------------------------------
:FULLY-SPECIFIED
:DEGREES
1121
root 7.766659 32.223687 -4.072058 2.911152 -5.986925 1.078172
Spine 2.166444 15.364726 -4.026669
Head 20.261988 -9.965531 -0.480413
LeftShoulder -17.957225 2.175685 29.632966
LeftArm -19.883428 -40.671739 -65.114668
LeftForeArm -7.927795 0.000000 89.993408
LeftHand 18.281337 -0.000000 14.328322
LeftHandThumb1 -26.253704 0.000000 33.147579
RightShoulder -20.113969 -23.232509 -23.751739
RightArm 10.064992 -37.079122 89.179835
RightForeArm -23.571399 -0.000000 103.299230
RightHand 18.228413 -0.000000 0.760934
RightHandThumb1 -24.326973 -0.000000 -32.862282
LeftUpLeg 1.603574 -0.813110 -8.929134
LeftLeg -0.976040 -0.000000 0.000000
LeftFoot -16.185401 20.833954 -15.228247
LeftToeBase 20.035558 -0.000000 -0.000000
RightUpLeg -5.222769 -4.544615 3.233148
RightLeg 70.610181 -0.000000 -0.000000
RightFoot 18.872712 -9.927160 47.597374
RightToeBase 16.747346 -0.000000 -0.000000
1122
root 7.770623 32.223699 -4.065880 2.915388 -5.957624 1.059632
Spine 2.163574 15.342725 -3.970878
Head 20.251176 -9.993983 -0.406388
LeftShoulder -17.937505 2.207871 29.620417
LeftArm -19.856392 -40.633162 -65.146753
LeftForeArm -7.989722 -0.000000 89.989569
LeftHand 18.255399 -0.000000 14.259633
LeftHandThumb1 -26.253704 0.000000 33.147579
RightShoulder -20.149121 -23.265716 -23.714276
RightArm 10.103433 -37.076133 89.117551
RightForeArm -23.593045 -0.000000 103.292965
RightHand 18.205973 -0.000000 0.809693
RightHandThumb1 -24.326973 -0.000000 -32.862282
LeftUpLeg 1.575033 -0.780798 -8.920655
LeftLeg -0.900080 -0.000000 0.000000
LeftFoot -16.186717 20.779238 -15.096147
LeftToeBase 19.888953 -0.000000 -0.000000
RightUpLeg -5.269077 -4.495115 3.265771
RightLeg 70.395349 -0.000000 -0.000000
RightFoot 19.037686 -9.829387 47.359446
RightToeBase 16.213504 -0.000000 -0.000000
1123
root 7.777691 32.222511 -4.057783 2.912040 -5.939171 1.061229
Spine 2.155348 15.302366 -3.934139
Head 20.255735 -10.002664 -0.330654
LeftShoulder -17.938571 2.234475 29.606271
LeftArm -19.881278 -40.592697 -65.134518
LeftForeArm -8.002146 -0.000000 89.983142
LeftHand 18.376579 -0.000000 13.842424
LeftHandThumb1 -26.253704 0.000000 33.147579
RightShoulder -20.169365 -23.331664 -23.684287
RightArm 10.199096 -37.085283 89.028275
RightForeArm -23.597663 0.000000 103.271905
RightHand 18.192211 0.000000 0.801913
RightHandThumb1 -24.326973 -0.000000 -32.862282
LeftUpLeg 1.558916 -0.713072 -8.935740
LeftLeg -0.843531 -0.000000 0.000000
LeftFoot -16.276052 20.719188 -15.118982
LeftToeBase 20.067176 -0.000000 -0.000000
RightUpLeg -5.337681 -4.534611 3.239558
RightLeg 70.245478 -0.000000 -0.000000
RightFoot 19.065421 -9.865210 47.249114
RightToeBase 16.459266 -0.000000 -0.000000
1124
root 7.778266 32.220514 -4.042947 2.858977 -5.895761 1.056071
Spine 2.188143 15.280601 -3.909883
Head 20.266180 -10.073277 -0.196519
LeftShoulder -17.909514 2.253766 29.628451
LeftArm -19.876655 -40.547907 -65.149537
LeftForeArm -7.980826 -0.000000 89.975267
LeftHand 18.314179 -0.000000 13.944988
LeftHandThumb1 -26.253704 0.000000 33.147579
RightShoulder -20.207308 -23.347153 -23.632827
RightArm 10.193638 -37.080295 89.002435
RightForeArm -23.632290 0.000000 103.268115
RightHand 18.183002 -0.000000 0.850066
RightHandThumb1 -24.326973 -0.000000 -32.862282
LeftUpLeg 1.611806 -0.613624 -8.929883
LeftLeg -0.786094 -0.000000 0.000000
LeftFoot -16.295775 20.555439 -15.107282
LeftToeBase 19.874584 -0.000000 -0.000000
RightUpLeg -5.302444 -4.539691 3.247550
RightLeg 70.055978 -0.000000 -0.000000
RightFoot 19.097317 -9.856169 47.383052
RightToeBase 16.348046 -0.000000 -0.000000
1125
root 7.785714 32.217585 -4.034866 2.841941 -5.897568 1.067687
Spine 2.195778 15.265243 -3.890955
Head 20.260683 -10.116596 -0.100915
LeftShoulder -17.907418 2.284101 29.627644
LeftArm -19.874791 -40.502985 -65.183151
LeftForeArm -8.059367 -0.000000 89.997054
LeftHand 18.178779 -0.000000 14.087312
LeftHandThumb1 -26.253704 0.000000 33.147579
RightShoulder -20.199194 -23.311960 -23.645410
RightArm 10.141782 -37.082223 89.013269
RightForeArm -23.668527 0.000000 103.259417
RightHand 18.143283 -0.000000 0.819753
RightHandThumb1 -24.326973 -0.000000 -32.862282
LeftUpLeg 1.614632 -0.494095 -8.952513
LeftLeg -0.733692 -0.000000 0.000000
LeftFoot -16.301284 20.462644 -14.993849
LeftToeBase 19.825423 -0.000000 -0.000000
RightUpLeg -5.338881 -4.494694 3.243050
RightLeg 69.924679 -0.000000 -0.000000
RightFoot 19.143200 -9.839614 47.135799
RightToeBase 16.315715 -0.000000 -0.000000
1126
root 7.793760 32.214540 -4.027014 2.829015 -5.893916 1.078432
Spine 2.191661 15.250236 -3.871808
Head 20.270786 -10.165459 -0.009457
LeftShoulder -17.903294 2.337850 29.609198
LeftArm -19.844294 -40.500080 -65.224192
LeftForeArm -8.062327 -0.000000 90.012304
LeftHand 18.140808 -0.000000 14.122699
LeftHandThumb1 -26.253704 0.000000 33.147579
RightShoulder -20.207193 -23.345746 -23.626290
RightArm 10.181161 -37.072143 88.964283
RightForeArm -23.657184 -0.000000 103.250724
RightHand 18.176521 -0.000000 0.821455
RightHandThumb1 -24.326973 -0.000000 -32.862282
LeftUpLeg 1.617868 -0.409882 -8.974299
LeftLeg -0.687224 -0.000000 0.000000
LeftFoot -16.319081 20.328260 -15.035407
LeftToeBase 19.741863 -0.000000 -0.000000
RightUpLeg -5.368627 -4.460798 3.229621
RightLeg 69.800503 -0.000000 -0.000000
RightFoot 19.139502 -9.828589 47.226591
RightToeBase 16.207142 -0.000000 -0.000000
1127
root 7.804530 32.211258 -4.017831 2.800755 -5.882380 1.087492
Spine 2.207642 15.223249 -3.836271
Head 20.280372 -10.177278 0.071941
LeftShoulder -17.900543 2.346129 29.592146
LeftArm -19.886086 -40.491008 -65.220065
LeftForeArm -8.054902 -0.000000 90.037586
LeftHand 18.147242 -0.000000 14.133483
LeftHandThumb1 -26.253704 0.000000 33.147579
RightShoulder -20.198549 -23.340996 -23.623501
RightArm 10.162971 -37.063859 88.933210
RightForeArm -23.673835 -0.000000 103.264025
RightHand 18.146548 -0.000000 0.763709
RightHandThumb1 -24.326973 -0.000000 -32.862282
LeftUpLeg 1.637906 -0.319040 -9.000780
LeftLeg -0.643881 -0.000000 0.000000
LeftFoot -16.341727 20.236576 -15.017230
LeftToeBase 19.762324 -0.000000 -0.000000
RightUpLeg -5.374567 -4.460406 3.197312
RightLeg 69.697279 -0.000000 -0.000000
RightFoot 19.106940 -9.803435 47.317181
RightToeBase 16.792569 -0.000000 -0.000000
1128
root 7.810648 32.206887 -4.009118 2.777424 -5.911624 1.112403
Spine 2.209892 15.256545 -3.854938
Head 20.281957 -10.242090 0.194920
LeftShoulder -17.890214 2.370443 29.598762
LeftArm -19.876595 -40.506244 -65.238030
LeftForeArm -8.077880 0.000000 90.053406
LeftHand 18.131224 -0.000000 14.116270
LeftHandThumb1 -26.253704 0.000000 33.147579
RightShoulder -20.227750 -23.352640 -23.597084
RightArm 10.171703 -37.068444 88.913412
RightForeArm -23.654137 -0.000000 103.263406
RightHand 18.151603 -0.000000 0.808829
RightHandThumb1 -24.326973 -0.000000 -32.862282
LeftUpLeg 1.658737 -0.149449 -9.031511
LeftLeg -0.611688 -0.000000 0.000000
LeftFoot -16.355502 20.066784 -15.031646
LeftToeBase 19.809017 -0.000000 -0.000000
RightUpLeg -5.393991 -4.414752 3.172949
RightLeg 69.633423 -0.000000 -0.000000
RightFoot 19.172791 -9.768155 47.220968
RightToeBase 16.131502 -0.000000 -0.000000
1129
root 7.816040 32.203417 -4.000421 2.762238 -5.928792 1.108880
Spine 2.200009 15.261903 -3.836434
Head 20.311659 -10.294701 0.304025
LeftShoulder -17.880342 2.388883 29.585400
LeftArm -19.922373 -40.548841 -65.201399
LeftForeArm -8.003534 -0.000000 90.081346
LeftHand 18.076220 -0.000000 13.913629
LeftHandThumb1 -26.253704 0.000000 33.147579
RightShoulder -20.234938 -23.371653 -23.584579
RightArm 10.183210 -37.068573 88.900099
RightForeArm -23.697416 0.000000 103.254329
RightHand 18.149908 -0.000000 0.779843
RightHandThumb1 -24.326973 -0.000000 -32.862282
LeftUpLeg 1.674744 0.007216 -9.036955
LeftLeg -0.578031 -0.000000 0.000000
LeftFoot -16.287177 19.950055 -14.836367
LeftToeBase 19.591354 -0.000000 -0.000000
RightUpLeg -5.441216 -4.243521 3.261121
RightLeg 69.611829 -0.000000 -0.000000
RightFoot 19.102160 -9.889543 47.383431
RightToeBase 16.031023 -0.000000 -0.000000
1130
root 7.824018 32.198680 -3.990301 2.747330 -5.935084 1.131227
Spine 2.185589 15.248055 -3.846175
Head 20.334286 -10.343239 0.397748
LeftShoulder -17.891449 2.371869 29.585210
LeftArm -19.958520 -40.556922 -65.184381
LeftForeArm -8.051407 -0.000000 90.102851
LeftHand 18.042025 -0.000000 14.041056
LeftHandThumb1 -26.253704 0.000000 33.147579
RightShoulder -20.251582 -23.402884 -23.575842
RightArm 10.213025 -37.076636 88.883473
RightForeArm -23.720519 -0.000000 103.244320
RightHand 18.192066 -0.000000 0.749686
RightHandThumb1 -24.326973 -0.000000 -32.862282
LeftUpLeg 1.694257 0.160176 -9.064258
LeftLeg -0.566215 -0.000000 0.000000
LeftFoot -16.377336 19.775854 -15.001511
LeftToeBase 19.932688 -0.000000 -0.000000
RightUpLeg -5.460969 -4.195356 3.251945
RightLeg 69.587466 -0.000000 -0.000000
RightFoot 19.126898 -9.937377 47.396653
RightToeBase 16.035080 -0.000000 -0.000000
1131
root 7.834080 32.193370 -3.978427 2.719940 -5.930977 1.165215
Spine 2.176385 15.233704 -3.863436
Head 20.363761 -10.395848 0.481370
LeftShoulder -17.885884 2.387116 29.580914
LeftArm -19.979010 -40.603839 -65.176365
LeftForeArm -8.031290 0.000000 90.124407
LeftHand 18.031431 -0.000000 13.955057
LeftHandThumb1 -26.253704 0.000000 33.147579
RightShoulder -20.269368 -23.417676 -23.572916
RightArm 10.205661 -37.084618 88.885988
RightForeArm -23.733565 0.000000 103.247095
RightHand 18.176053 -0.000000 0.722193
RightHandThumb1 -24.326973 -0.000000 -32.862282
LeftUpLeg 1.728169 0.304995 -9.112407
LeftLeg -0.536940 -0.000000 0.000000
LeftFoot -16.315493 19.625368 -14.897316
LeftToeBase 19.707853 -0.000000 -0.000000
RightUpLeg -5.444067 -4.225746 3.190184
RightLeg 69.571782 -0.000000 -0.000000
RightFoot 19.193052 -9.921183 47.375991
RightToeBase 16.076114 -0.000000 -0.000000
1132
root 7.843814 32.188569 -3.966469 2.699383 -5.917299 1.191596
Spine 2.157992 15.196874 -3.874389
Head 20.398778 -10.445811 0.543065
LeftShoulder -17.893059 2.371617 29.582776
LeftArm -20.048097 -40.606594 -65.125289
LeftForeArm -8.019273 -0.000000 90.138605
LeftHand 18.051596 -0.000000 13.869836
LeftHandThumb1 -26.253704 0.000000 33.147579
RightShoulder -20.279374 -23.428636 -23.582646
RightArm 10.188371 -37.085210 88.905110
RightForeArm -23.720265 0.000000 103.246238
RightHand 18.192746 0.000000 0.714875
RightHandThumb1 -24.326973 -0.000000 -32.862282
LeftUpLeg 1.758628 0.453838 -9.148308
LeftLeg -0.523383 -0.000000 0.000000
LeftFoot -16.302576 19.450428 -14.907869
LeftToeBase 19.729105 -0.000000 -0.000000
RightUpLeg -5.426154 -4.254343 3.146842
RightLeg 69.578757 -0.000000 -0.000000
RightFoot 19.234386 -9.898632 47.330133
RightToeBase 16.188288 -0.000000 -0.000000
